<svg xmlns="http://www.w3.org/2000/svg" xmlns:xlink="http://www.w3.org/1999/xlink" viewBox="0 0 623 345" width="623" height="345"><path d="M 112.000,34.433 C 110.500,42.433 110.563,42.446 109.000,50.433" stroke-width="4.980" stroke="black" fill="none" stroke-linecap="round"></path><path d="M 109.000,50.433 C 106.063,65.446 105.268,65.316 103.000,80.433" stroke-width="2.366" stroke="black" fill="none" stroke-linecap="round"></path><path d="M 103.000,80.433 C 99.268,105.316 100.269,105.469 97.000,130.433" stroke-width="1.613" stroke="black" fill="none" stroke-linecap="round"></path><path d="M 97.000,130.433 C 94.769,147.469 94.461,147.428 92.000,164.433" stroke-width="1.779" stroke="black" fill="none" stroke-linecap="round"></path><path d="M 92.000,164.433 C 88.961,185.428 88.866,185.415 86.000,206.433" stroke-width="1.705" stroke="black" fill="none" stroke-linecap="round"></path><path d="M 86.000,206.433 C 81.366,240.415 82.193,240.541 77.000,274.433" stroke-width="1.150" stroke="black" fill="none" stroke-linecap="round"></path><path d="M 235.000,61.433 C 233.000,62.933 232.756,62.677 231.000,64.433" stroke-width="5.392" stroke="black" fill="none" stroke-linecap="round"></path><path d="M 231.000,64.433 C 228.256,67.177 228.439,67.384 226.000,70.433" stroke-width="4.152" stroke="black" fill="none" stroke-linecap="round"></path><path d="M 226.000,70.433 C 222.439,74.884 222.407,74.863 219.000,79.433" stroke-width="3.630" stroke="black" fill="none" stroke-linecap="round"></path><path d="M 219.000,79.433 C 201.907,102.363 203.965,104.192 185.000,125.433" stroke-width="1.598" stroke="black" fill="none" stroke-linecap="round"></path><path d="M 185.000,125.433 C 166.465,146.192 162.346,142.641 144.000,163.433" stroke-width="1.888" stroke="black" fill="none" stroke-linecap="round"></path><path d="M 144.000,163.433 C 132.346,176.641 136.753,180.331 125.000,193.433" stroke-width="1.841" stroke="black" fill="none" stroke-linecap="round"></path><path d="M 125.000,193.433 C 106.253,214.331 104.842,213.504 83.000,231.433" stroke-width="1.424" stroke="black" fill="none" stroke-linecap="round"></path><path d="M 83.000,231.433 C 71.342,241.004 70.244,239.590 58.000,248.433" stroke-width="1.797" stroke="black" fill="none" stroke-linecap="round"></path><path d="M 58.000,248.433 C 52.244,252.590 52.137,252.553 47.000,257.433" stroke-width="2.488" stroke="black" fill="none" stroke-linecap="round"></path><path d="M 47.000,257.433 C 42.137,262.053 42.060,262.091 38.000,267.433" stroke-width="2.958" stroke="black" fill="none" stroke-linecap="round"></path><path d="M 38.000,267.433 C 32.560,274.591 33.089,274.996 28.000,282.433" stroke-width="2.732" stroke="black" fill="none" stroke-linecap="round"></path><path d="M 28.000,282.433 C 26.589,284.496 25.750,286.683 25.000,286.433" stroke-width="3.951" stroke="black" fill="none" stroke-linecap="round"></path><path d="M 25.000,286.433 C 24.250,286.183 24.752,283.909 25.000,281.433" stroke-width="4.699" stroke="black" fill="none" stroke-linecap="round"></path><path d="M 25.000,281.433 C 25.252,278.909 25.253,278.863 26.000,276.433" stroke-width="4.473" stroke="black" fill="none" stroke-linecap="round"></path><path d="M 26.000,276.433 C 27.253,272.363 27.102,272.229 29.000,268.433" stroke-width="3.877" stroke="black" fill="none" stroke-linecap="round"></path><path d="M 29.000,268.433 C 30.602,265.229 30.728,265.210 33.000,262.433" stroke-width="3.877" stroke="black" fill="none" stroke-linecap="round"></path><path d="M 33.000,262.433 C 35.228,259.710 34.928,259.088 38.000,257.433" stroke-width="3.943" stroke="black" fill="none" stroke-linecap="round"></path><path d="M 38.000,257.433 C 47.928,252.088 48.007,250.901 59.000,248.433" stroke-width="2.719" stroke="black" fill="none" stroke-linecap="round"></path><path d="M 59.000,248.433 C 72.507,245.401 72.989,247.117 87.000,246.433" stroke-width="2.271" stroke="black" fill="none" stroke-linecap="round"></path><path d="M 87.000,246.433 C 93.489,246.117 93.512,246.163 100.000,246.433" stroke-width="2.843" stroke="black" fill="none" stroke-linecap="round"></path><path d="M 100.000,246.433 C 105.512,246.663 105.846,245.794 111.000,247.433" stroke-width="3.217" stroke="black" fill="none" stroke-linecap="round"></path><path d="M 111.000,247.433 C 116.846,249.294 116.706,250.124 122.000,253.433" stroke-width="3.658" stroke="black" fill="none" stroke-linecap="round"></path><path d="M 122.000,253.433 C 124.706,255.124 124.049,256.565 127.000,257.433" stroke-width="4.092" stroke="black" fill="none" stroke-linecap="round"></path><path d="M 127.000,257.433 C 132.549,259.065 133.079,258.745 139.000,258.433" stroke-width="4.391" stroke="black" fill="none" stroke-linecap="round"></path><path d="M 139.000,258.433 C 142.579,258.245 142.449,257.194 146.000,256.433" stroke-width="4.010" stroke="black" fill="none" stroke-linecap="round"></path><path d="M 146.000,256.433 C 149.449,255.694 149.485,255.726 153.000,255.433" stroke-width="4.072" stroke="black" fill="none" stroke-linecap="round"></path><path d="M 153.000,255.433 C 155.485,255.226 155.500,255.433 158.000,255.433" stroke-width="4.260" stroke="black" fill="none" stroke-linecap="round"></path><path d="M 158.000,255.433 C 164.000,255.433 164.000,255.433 170.000,255.433" stroke-width="4.140" stroke="black" fill="none" stroke-linecap="round"></path><path d="M 170.000,255.433 C 173.500,255.433 174.015,256.677 177.000,255.433" stroke-width="4.760" stroke="black" fill="none" stroke-linecap="round"></path><path d="M 177.000,255.433 C 180.015,254.177 180.152,253.337 182.000,250.433" stroke-width="4.687" stroke="black" fill="none" stroke-linecap="round"></path><path d="M 182.000,250.433 C 183.652,247.837 185.786,245.083 184.000,244.433" stroke-width="4.260" stroke="black" fill="none" stroke-linecap="round"></path><path d="M 184.000,244.433 C 180.286,243.083 177.136,244.496 171.000,246.433" stroke-width="4.381" stroke="black" fill="none" stroke-linecap="round"></path><path d="M 171.000,246.433 C 167.636,247.496 167.648,248.050 165.000,250.433" stroke-width="4.070" stroke="black" fill="none" stroke-linecap="round"></path><path d="M 165.000,250.433 C 162.648,252.550 160.512,253.480 161.000,255.433" stroke-width="4.513" stroke="black" fill="none" stroke-linecap="round"></path><path d="M 161.000,255.433 C 161.512,257.480 163.788,257.831 167.000,258.433" stroke-width="4.817" stroke="black" fill="none" stroke-linecap="round"></path><path d="M 167.000,258.433 C 171.788,259.331 172.000,258.433 177.000,258.433" stroke-width="3.781" stroke="black" fill="none" stroke-linecap="round"></path><path d="M 177.000,258.433 C 183.000,258.433 183.042,258.992 189.000,258.433" stroke-width="3.541" stroke="black" fill="none" stroke-linecap="round"></path><path d="M 189.000,258.433 C 199.042,257.492 198.971,256.548 209.000,255.433" stroke-width="3.379" stroke="black" fill="none" stroke-linecap="round"></path><path d="M 209.000,255.433 C 212.471,255.048 212.500,255.433 216.000,255.433" stroke-width="3.736" stroke="black" fill="none" stroke-linecap="round"></path><path d="M 216.000,255.433 C 219.500,255.433 220.860,253.828 223.000,255.433" stroke-width="4.093" stroke="black" fill="none" stroke-linecap="round"></path><path d="M 223.000,255.433 C 224.860,256.828 222.091,261.592 224.000,261.433" stroke-width="4.517" stroke="black" fill="none" stroke-linecap="round"></path><path d="M 224.000,261.433 C 228.091,261.092 230.180,258.651 235.000,254.433" stroke-width="4.641" stroke="black" fill="none" stroke-linecap="round"></path><path d="M 235.000,254.433 C 238.180,251.651 237.936,251.187 240.000,247.433" stroke-width="3.967" stroke="black" fill="none" stroke-linecap="round"></path><path d="M 240.000,247.433 C 243.436,241.187 243.302,241.057 246.000,234.433" stroke-width="3.403" stroke="black" fill="none" stroke-linecap="round"></path><path d="M 246.000,234.433 C 248.802,227.557 248.355,227.376 251.000,220.433" stroke-width="3.111" stroke="black" fill="none" stroke-linecap="round"></path><path d="M 251.000,220.433 C 252.355,216.876 253.648,212.202 254.000,213.433" stroke-width="3.570" stroke="black" fill="none" stroke-linecap="round"></path><path d="M 254.000,213.433 C 254.648,215.702 254.872,220.776 253.000,227.433" stroke-width="4.084" stroke="black" fill="none" stroke-linecap="round"></path><path d="M 253.000,227.433 C 250.372,236.776 248.966,236.419 245.000,245.433" stroke-width="2.848" stroke="black" fill="none" stroke-linecap="round"></path><path d="M 245.000,245.433 C 243.466,248.919 243.278,248.854 242.000,252.433" stroke-width="3.502" stroke="black" fill="none" stroke-linecap="round"></path><path d="M 242.000,252.433 C 240.778,255.854 240.548,255.870 240.000,259.433" stroke-width="3.797" stroke="black" fill="none" stroke-linecap="round"></path><path d="M 240.000,259.433 C 239.548,262.370 238.393,264.286 240.000,265.433" stroke-width="4.083" stroke="black" fill="none" stroke-linecap="round"></path><path d="M 240.000,265.433 C 241.893,266.786 243.604,265.339 247.000,264.433" stroke-width="4.829" stroke="black" fill="none" stroke-linecap="round"></path><path d="M 247.000,264.433 C 251.104,263.339 252.685,260.147 255.000,261.433" stroke-width="4.216" stroke="black" fill="none" stroke-linecap="round"></path><path d="M 255.000,261.433 C 257.185,262.647 255.172,265.498 256.000,269.433" stroke-width="4.628" stroke="black" fill="none" stroke-linecap="round"></path><path d="M 256.000,269.433 C 257.172,274.998 256.219,276.610 259.000,280.433" stroke-width="3.667" stroke="black" fill="none" stroke-linecap="round"></path><path d="M 259.000,280.433 C 260.219,282.110 261.889,281.372 264.000,280.433" stroke-width="4.577" stroke="black" fill="none" stroke-linecap="round"></path><path d="M 264.000,280.433 C 266.389,279.372 265.832,278.240 268.000,276.433" stroke-width="4.274" stroke="black" fill="none" stroke-linecap="round"></path><path d="M 268.000,276.433 C 271.832,273.240 271.616,272.626 276.000,270.433" stroke-width="3.734" stroke="black" fill="none" stroke-linecap="round"></path><path d="M 276.000,270.433 C 279.616,268.626 280.265,268.122 284.000,268.433" stroke-width="4.239" stroke="black" fill="none" stroke-linecap="round"></path><path d="M 284.000,268.433 C 286.265,268.622 286.000,269.933 288.000,271.433" stroke-width="4.671" stroke="black" fill="none" stroke-linecap="round"></path><path d="M 288.000,271.433 C 290.000,272.933 289.722,273.605 292.000,274.433" stroke-width="4.439" stroke="black" fill="none" stroke-linecap="round"></path><path d="M 292.000,274.433 C 295.222,275.605 295.480,275.213 299.000,275.433" stroke-width="4.589" stroke="black" fill="none" stroke-linecap="round"></path><path d="M 299.000,275.433 C 303.480,275.713 303.620,276.059 308.000,275.433" stroke-width="4.469" stroke="black" fill="none" stroke-linecap="round"></path><path d="M 308.000,275.433 C 310.620,275.059 310.649,273.006 313.000,273.433" stroke-width="4.720" stroke="black" fill="none" stroke-linecap="round"></path><path d="M 313.000,273.433 C 316.149,274.006 316.223,277.686 319.000,277.433" stroke-width="5.036" stroke="black" fill="none" stroke-linecap="round"></path><path d="M 319.000,277.433 C 321.723,277.186 322.388,275.495 324.000,272.433" stroke-width="4.728" stroke="black" fill="none" stroke-linecap="round"></path><path d="M 324.000,272.433 C 327.388,265.995 329.000,264.724 329.000,258.433" stroke-width="4.446" stroke="black" fill="none" stroke-linecap="round"></path><path d="M 329.000,258.433 C 329.000,255.724 324.000,254.196 324.000,254.433" stroke-width="4.962" stroke="black" fill="none" stroke-linecap="round"></path><path d="M 324.000,254.433 C 324.000,254.696 325.796,258.632 329.000,259.433" stroke-width="5.158" stroke="black" fill="none" stroke-linecap="round"></path><path d="M 329.000,259.433 C 335.796,261.132 336.561,258.736 344.000,259.433" stroke-width="3.624" stroke="black" fill="none" stroke-linecap="round"></path><path d="M 344.000,259.433 C 352.561,260.236 352.473,261.121 361.000,262.433" stroke-width="2.998" stroke="black" fill="none" stroke-linecap="round"></path><path d="M 361.000,262.433 C 365.473,263.121 365.565,262.602 370.000,263.433" stroke-width="3.483" stroke="black" fill="none" stroke-linecap="round"></path><path d="M 370.000,263.433 C 373.565,264.102 375.102,263.061 377.000,265.433" stroke-width="3.742" stroke="black" fill="none" stroke-linecap="round"></path><path d="M 377.000,265.433 C 379.102,268.061 379.016,269.878 378.000,273.433" stroke-width="4.779" stroke="black" fill="none" stroke-linecap="round"></path><path d="M 378.000,273.433 C 377.016,276.878 372.740,276.834 373.000,279.433" stroke-width="4.615" stroke="black" fill="none" stroke-linecap="round"></path><path d="M 373.000,279.433 C 373.240,281.834 375.778,281.969 379.000,283.433" stroke-width="4.830" stroke="black" fill="none" stroke-linecap="round"></path><path d="M 379.000,283.433 C 381.278,284.469 384.000,283.500 384.000,284.433" stroke-width="5.098" stroke="black" fill="none" stroke-linecap="round"></path><path d="M 384.000,284.433 C 384.000,285.500 380.600,287.967 379.000,287.433" stroke-width="5.299" stroke="black" fill="none" stroke-linecap="round"></path><path d="M 379.000,287.433 C 377.600,286.967 377.062,284.661 378.000,282.433" stroke-width="5.161" stroke="black" fill="none" stroke-linecap="round"></path><path d="M 378.000,282.433 C 381.062,275.161 382.068,275.106 387.000,268.433" stroke-width="4.107" stroke="black" fill="none" stroke-linecap="round"></path><path d="M 387.000,268.433 C 390.568,263.606 390.884,263.824 395.000,259.433" stroke-width="3.435" stroke="black" fill="none" stroke-linecap="round"></path><path d="M 395.000,259.433 C 398.384,255.824 398.015,255.341 402.000,252.433" stroke-width="3.615" stroke="black" fill="none" stroke-linecap="round"></path><path d="M 402.000,252.433 C 416.515,241.841 417.712,243.246 432.000,232.433" stroke-width="2.876" stroke="black" fill="none" stroke-linecap="round"></path><path d="M 432.000,232.433 C 436.212,229.246 436.750,229.120 439.000,224.433" stroke-width="3.211" stroke="black" fill="none" stroke-linecap="round"></path><path d="M 439.000,224.433 C 442.750,216.620 442.513,216.108 444.000,207.433" stroke-width="2.938" stroke="black" fill="none" stroke-linecap="round"></path><path d="M 444.000,207.433 C 445.513,198.608 445.756,198.123 445.000,189.433" stroke-width="2.726" stroke="black" fill="none" stroke-linecap="round"></path><path d="M 445.000,189.433 C 444.756,186.623 444.315,186.025 442.000,184.433" stroke-width="3.608" stroke="black" fill="none" stroke-linecap="round"></path><path d="M 442.000,184.433 C 436.315,180.525 435.667,180.890 429.000,178.433" stroke-width="3.823" stroke="black" fill="none" stroke-linecap="round"></path><path d="M 429.000,178.433 C 426.167,177.390 425.959,177.206 423.000,177.433" stroke-width="3.996" stroke="black" fill="none" stroke-linecap="round"></path><path d="M 423.000,177.433 C 419.459,177.706 418.498,177.127 416.000,179.433" stroke-width="4.002" stroke="black" fill="none" stroke-linecap="round"></path><path d="M 416.000,179.433 C 411.998,183.127 412.099,184.070 410.000,189.433" stroke-width="3.447" stroke="black" fill="none" stroke-linecap="round"></path><path d="M 410.000,189.433 C 407.599,195.570 408.674,195.978 407.000,202.433" stroke-width="3.235" stroke="black" fill="none" stroke-linecap="round"></path><path d="M 407.000,202.433 C 405.174,209.478 404.577,209.335 403.000,216.433" stroke-width="3.089" stroke="black" fill="none" stroke-linecap="round"></path><path d="M 403.000,216.433 C 400.577,227.335 400.779,227.401 399.000,238.433" stroke-width="2.528" stroke="black" fill="none" stroke-linecap="round"></path><path d="M 399.000,238.433 C 398.279,242.901 398.215,242.918 398.000,247.433" stroke-width="3.232" stroke="black" fill="none" stroke-linecap="round"></path><path d="M 398.000,247.433 C 397.715,253.418 398.000,253.433 398.000,259.433" stroke-width="3.278" stroke="black" fill="none" stroke-linecap="round"></path><path d="M 398.000,259.433 C 398.000,265.433 398.000,265.433 398.000,271.433" stroke-width="3.345" stroke="black" fill="none" stroke-linecap="round"></path><path d="M 398.000,271.433 C 398.000,277.933 396.204,279.405 398.000,284.433" stroke-width="3.705" stroke="black" fill="none" stroke-linecap="round"></path><path d="M 398.000,284.433 C 398.704,286.405 400.475,285.181 403.000,285.433" stroke-width="4.781" stroke="black" fill="none" stroke-linecap="round"></path><path d="M 403.000,285.433 C 405.475,285.681 405.500,285.433 408.000,285.433" stroke-width="4.866" stroke="black" fill="none" stroke-linecap="round"></path><path d="M 408.000,285.433 C 410.500,285.433 410.500,285.433 413.000,285.433" stroke-width="4.532" stroke="black" fill="none" stroke-linecap="round"></path><path d="M 413.000,285.433 C 416.000,285.433 416.013,285.647 419.000,285.433" stroke-width="4.159" stroke="black" fill="none" stroke-linecap="round"></path><path d="M 419.000,285.433 C 423.013,285.147 423.377,285.827 427.000,284.433" stroke-width="3.913" stroke="black" fill="none" stroke-linecap="round"></path><path d="M 427.000,284.433 C 429.877,283.327 429.754,282.679 432.000,280.433" stroke-width="4.439" stroke="black" fill="none" stroke-linecap="round"></path><path d="M 432.000,280.433 C 433.754,278.679 433.982,278.673 435.000,276.433" stroke-width="5.014" stroke="black" fill="none" stroke-linecap="round"></path><path d="M 435.000,276.433 C 436.482,273.173 438.070,270.771 437.000,269.433" stroke-width="4.941" stroke="black" fill="none" stroke-linecap="round"></path><path d="M 437.000,269.433 C 436.070,268.271 430.586,270.191 431.000,271.433" stroke-width="5.138" stroke="black" fill="none" stroke-linecap="round"></path><path d="M 431.000,271.433 C 431.586,273.191 434.683,274.634 439.000,275.433" stroke-width="5.155" stroke="black" fill="none" stroke-linecap="round"></path><path d="M 439.000,275.433 C 448.183,277.134 448.496,276.068 458.000,276.433" stroke-width="3.106" stroke="black" fill="none" stroke-linecap="round"></path><path d="M 458.000,276.433 C 461.496,276.568 461.569,276.924 465.000,276.433" stroke-width="3.712" stroke="black" fill="none" stroke-linecap="round"></path><path d="M 465.000,276.433 C 468.569,275.924 468.911,276.198 472.000,274.433" stroke-width="3.818" stroke="black" fill="none" stroke-linecap="round"></path><path d="M 472.000,274.433 C 475.911,272.198 475.758,271.675 479.000,268.433" stroke-width="4.206" stroke="black" fill="none" stroke-linecap="round"></path><circle r="1.5" cx="257" cy="242.43333435058594" fill="black"></circle></svg>