<svg xmlns="http://www.w3.org/2000/svg" xmlns:xlink="http://www.w3.org/1999/xlink" viewBox="0 0 623 345" width="623" height="345"><path d="M 58.000,10.433 C 58.000,14.433 58.000,14.433 58.000,18.433" stroke-width="5.421" stroke="black" fill="none" stroke-linecap="round"></path><path d="M 58.000,18.433 C 58.000,22.933 57.824,22.938 58.000,27.433" stroke-width="4.132" stroke="black" fill="none" stroke-linecap="round"></path><path d="M 58.000,27.433 C 58.824,48.438 59.522,48.421 60.000,69.433" stroke-width="1.908" stroke="black" fill="none" stroke-linecap="round"></path><path d="M 60.000,69.433 C 60.522,92.421 61.086,92.471 60.000,115.433" stroke-width="1.617" stroke="black" fill="none" stroke-linecap="round"></path><path d="M 60.000,115.433 C 57.586,166.471 57.139,166.488 53.000,217.433" stroke-width="1.125" stroke="black" fill="none" stroke-linecap="round"></path><path d="M 53.000,217.433 C 50.639,246.488 50.126,246.447 47.000,275.433" stroke-width="1.125" stroke="black" fill="none" stroke-linecap="round"></path><path d="M 149.000,11.433 C 148.500,14.433 148.796,14.516 148.000,17.433" stroke-width="5.344" stroke="black" fill="none" stroke-linecap="round"></path><path d="M 148.000,17.433 C 147.296,20.016 146.920,19.904 146.000,22.433" stroke-width="4.545" stroke="black" fill="none" stroke-linecap="round"></path><path d="M 146.000,22.433 C 144.920,25.404 145.213,25.522 144.000,28.433" stroke-width="4.224" stroke="black" fill="none" stroke-linecap="round"></path><path d="M 144.000,28.433 C 142.713,31.522 142.500,31.433 141.000,34.433" stroke-width="4.089" stroke="black" fill="none" stroke-linecap="round"></path><path d="M 141.000,34.433 C 133.000,50.433 132.883,50.376 125.000,66.433" stroke-width="2.175" stroke="black" fill="none" stroke-linecap="round"></path><path d="M 125.000,66.433 C 119.383,77.876 119.365,77.870 114.000,89.433" stroke-width="2.171" stroke="black" fill="none" stroke-linecap="round"></path><path d="M 114.000,89.433 C 90.365,140.370 91.570,141.022 67.000,191.433" stroke-width="1.918" stroke="black" fill="none" stroke-linecap="round"></path><path d="M 67.000,191.433 C 62.570,200.522 60.793,199.646 56.000,208.433" stroke-width="2.719" stroke="black" fill="none" stroke-linecap="round"></path><path d="M 56.000,208.433 C 54.793,210.646 56.257,211.338 55.000,213.433" stroke-width="3.675" stroke="black" fill="none" stroke-linecap="round"></path><path d="M 55.000,213.433 C 53.257,216.338 52.053,215.611 50.000,218.433" stroke-width="3.830" stroke="black" fill="none" stroke-linecap="round"></path><path d="M 50.000,218.433 C 48.053,221.111 48.791,221.619 47.000,224.433" stroke-width="4.557" stroke="black" fill="none" stroke-linecap="round"></path><path d="M 47.000,224.433 C 45.291,227.119 44.123,229.433 43.000,229.433" stroke-width="4.789" stroke="black" fill="none" stroke-linecap="round"></path><path d="M 43.000,229.433 C 42.123,229.433 41.888,226.473 43.000,224.433" stroke-width="5.245" stroke="black" fill="none" stroke-linecap="round"></path><path d="M 43.000,224.433 C 44.888,220.973 45.649,220.947 49.000,218.433" stroke-width="4.701" stroke="black" fill="none" stroke-linecap="round"></path><path d="M 49.000,218.433 C 51.649,216.447 51.849,216.293 55.000,215.433" stroke-width="4.699" stroke="black" fill="none" stroke-linecap="round"></path><path d="M 55.000,215.433 C 57.349,214.793 57.500,215.433 60.000,215.433" stroke-width="4.402" stroke="black" fill="none" stroke-linecap="round"></path><path d="M 60.000,215.433 C 62.500,215.433 63.318,213.872 65.000,215.433" stroke-width="4.729" stroke="black" fill="none" stroke-linecap="round"></path><path d="M 65.000,215.433 C 70.318,220.372 70.385,221.532 74.000,228.433" stroke-width="4.532" stroke="black" fill="none" stroke-linecap="round"></path><path d="M 74.000,228.433 C 75.885,232.032 75.350,232.369 76.000,236.433" stroke-width="3.860" stroke="black" fill="none" stroke-linecap="round"></path><path d="M 76.000,236.433 C 77.350,244.869 76.844,244.958 78.000,253.433" stroke-width="3.558" stroke="black" fill="none" stroke-linecap="round"></path><path d="M 78.000,253.433 C 78.344,255.958 78.500,255.933 79.000,258.433" stroke-width="4.098" stroke="black" fill="none" stroke-linecap="round"></path><path d="M 79.000,258.433 C 79.500,260.933 78.450,261.690 80.000,263.433" stroke-width="4.463" stroke="black" fill="none" stroke-linecap="round"></path><path d="M 80.000,263.433 C 82.450,266.190 83.235,266.429 87.000,267.433" stroke-width="4.915" stroke="black" fill="none" stroke-linecap="round"></path><path d="M 87.000,267.433 C 90.735,268.429 91.030,267.739 95.000,267.433" stroke-width="4.920" stroke="black" fill="none" stroke-linecap="round"></path><path d="M 95.000,267.433 C 97.530,267.239 97.529,267.051 100.000,266.433" stroke-width="4.532" stroke="black" fill="none" stroke-linecap="round"></path><path d="M 100.000,266.433 C 103.529,265.551 103.551,265.583 107.000,264.433" stroke-width="4.435" stroke="black" fill="none" stroke-linecap="round"></path><path d="M 156.000,192.433 C 156.000,188.933 156.000,188.933 156.000,185.433" stroke-width="5.252" stroke="black" fill="none" stroke-linecap="round"></path><path d="M 156.000,185.433 C 156.000,181.933 156.000,181.933 156.000,178.433" stroke-width="4.295" stroke="black" fill="none" stroke-linecap="round"></path><path d="M 156.000,178.433 C 156.000,175.933 157.450,174.262 156.000,173.433" stroke-width="4.831" stroke="black" fill="none" stroke-linecap="round"></path><path d="M 156.000,173.433 C 153.950,172.262 151.403,172.164 149.000,174.433" stroke-width="5.122" stroke="black" fill="none" stroke-linecap="round"></path><path d="M 149.000,174.433 C 142.403,180.664 141.976,181.735 138.000,190.433" stroke-width="4.157" stroke="black" fill="none" stroke-linecap="round"></path><path d="M 138.000,190.433 C 133.976,199.235 135.206,199.874 133.000,209.433" stroke-width="3.397" stroke="black" fill="none" stroke-linecap="round"></path><path d="M 133.000,209.433 C 132.206,212.874 132.340,212.915 132.000,216.433" stroke-width="3.822" stroke="black" fill="none" stroke-linecap="round"></path><path d="M 132.000,216.433 C 130.840,228.415 131.028,228.436 130.000,240.433" stroke-width="2.562" stroke="black" fill="none" stroke-linecap="round"></path><path d="M 130.000,240.433 C 129.528,245.936 129.324,245.925 129.000,251.433" stroke-width="3.054" stroke="black" fill="none" stroke-linecap="round"></path><path d="M 129.000,251.433 C 128.824,254.425 129.000,254.433 129.000,257.433" stroke-width="3.751" stroke="black" fill="none" stroke-linecap="round"></path><path d="M 129.000,257.433 C 129.000,259.933 127.614,262.433 129.000,262.433" stroke-width="4.529" stroke="black" fill="none" stroke-linecap="round"></path><path d="M 129.000,262.433 C 131.614,262.433 133.599,260.551 137.000,257.433" stroke-width="4.861" stroke="black" fill="none" stroke-linecap="round"></path><path d="M 137.000,257.433 C 139.599,255.051 139.000,254.433 141.000,251.433" stroke-width="4.237" stroke="black" fill="none" stroke-linecap="round"></path><path d="M 141.000,251.433 C 143.000,248.433 142.869,248.339 145.000,245.433" stroke-width="4.032" stroke="black" fill="none" stroke-linecap="round"></path><path d="M 145.000,245.433 C 148.369,240.839 148.692,241.065 152.000,236.433" stroke-width="4.283" stroke="black" fill="none" stroke-linecap="round"></path><path d="M 152.000,236.433 C 153.692,234.065 154.318,234.160 155.000,231.433" stroke-width="4.836" stroke="black" fill="none" stroke-linecap="round"></path><path d="M 155.000,231.433 C 155.818,228.160 155.000,227.933 155.000,224.433" stroke-width="4.679" stroke="black" fill="none" stroke-linecap="round"></path><path d="M 155.000,224.433 C 155.000,220.933 155.000,220.933 155.000,217.433" stroke-width="4.685" stroke="black" fill="none" stroke-linecap="round"></path><path d="M 155.000,217.433 C 155.000,214.933 155.000,214.933 155.000,212.433" stroke-width="5.191" stroke="black" fill="none" stroke-linecap="round"></path><path d="M 155.000,212.433 C 155.000,209.933 155.000,206.856 155.000,207.433" stroke-width="5.221" stroke="black" fill="none" stroke-linecap="round"></path><path d="M 155.000,207.433 C 155.000,208.356 155.000,211.433 155.000,215.433" stroke-width="5.432" stroke="black" fill="none" stroke-linecap="round"></path><path d="M 155.000,215.433 C 155.000,217.933 155.000,217.933 155.000,220.433" stroke-width="5.205" stroke="black" fill="none" stroke-linecap="round"></path><path d="M 155.000,220.433 C 155.000,222.933 154.752,222.958 155.000,225.433" stroke-width="5.275" stroke="black" fill="none" stroke-linecap="round"></path><path d="M 155.000,225.433 C 155.252,227.958 155.500,227.933 156.000,230.433" stroke-width="5.292" stroke="black" fill="none" stroke-linecap="round"></path><path d="M 156.000,230.433 C 156.500,232.933 156.270,233.002 157.000,235.433" stroke-width="5.336" stroke="black" fill="none" stroke-linecap="round"></path><path d="M 157.000,235.433 C 157.770,238.002 158.000,237.933 159.000,240.433" stroke-width="5.442" stroke="black" fill="none" stroke-linecap="round"></path><path d="M 159.000,240.433 C 160.000,242.933 159.704,243.100 161.000,245.433" stroke-width="5.546" stroke="black" fill="none" stroke-linecap="round"></path><path d="M 161.000,245.433 C 162.204,247.600 162.358,247.557 164.000,249.433" stroke-width="5.498" stroke="black" fill="none" stroke-linecap="round"></path><path d="M 164.000,249.433 C 165.858,251.557 166.142,251.310 168.000,253.433" stroke-width="5.530" stroke="black" fill="none" stroke-linecap="round"></path><path d="M 168.000,253.433 C 169.642,255.310 169.000,256.433 171.000,257.433" stroke-width="5.514" stroke="black" fill="none" stroke-linecap="round"></path><path d="M 171.000,257.433 C 173.000,258.433 173.750,258.183 176.000,257.433" stroke-width="5.541" stroke="black" fill="none" stroke-linecap="round"></path><path d="M 170.000,224.433 C 178.000,160.933 180.311,145.133 186.000,97.433" stroke-width="4.711" stroke="black" fill="none" stroke-linecap="round"></path><path d="M 186.000,97.433 C 186.811,90.633 184.221,106.395 183.000,115.433" stroke-width="3.537" stroke="black" fill="none" stroke-linecap="round"></path><path d="M 183.000,115.433 C 181.721,124.895 182.397,125.004 181.000,134.433" stroke-width="3.199" stroke="black" fill="none" stroke-linecap="round"></path><path d="M 204.000,167.433 C 204.000,171.433 204.492,171.494 204.000,175.433" stroke-width="5.467" stroke="black" fill="none" stroke-linecap="round"></path><path d="M 204.000,175.433 C 203.492,179.494 202.927,179.417 202.000,183.433" stroke-width="4.382" stroke="black" fill="none" stroke-linecap="round"></path><path d="M 202.000,183.433 C 201.427,185.917 201.500,185.933 201.000,188.433" stroke-width="4.790" stroke="black" fill="none" stroke-linecap="round"></path><path d="M 201.000,188.433 C 200.500,190.933 200.316,190.907 200.000,193.433" stroke-width="4.602" stroke="black" fill="none" stroke-linecap="round"></path><path d="M 200.000,193.433 C 199.316,198.907 199.290,198.924 199.000,204.433" stroke-width="3.759" stroke="black" fill="none" stroke-linecap="round"></path><path d="M 199.000,204.433 C 198.790,208.424 199.000,208.433 199.000,212.433" stroke-width="4.266" stroke="black" fill="none" stroke-linecap="round"></path><path d="M 199.000,212.433 C 199.000,215.433 199.000,215.433 199.000,218.433" stroke-width="4.762" stroke="black" fill="none" stroke-linecap="round"></path><path d="M 199.000,218.433 C 199.000,220.933 199.000,220.933 199.000,223.433" stroke-width="4.983" stroke="black" fill="none" stroke-linecap="round"></path><path d="M 199.000,223.433 C 199.000,226.433 199.000,226.433 199.000,229.433" stroke-width="5.120" stroke="black" fill="none" stroke-linecap="round"></path><path d="M 199.000,229.433 C 199.000,231.933 198.774,231.952 199.000,234.433" stroke-width="5.199" stroke="black" fill="none" stroke-linecap="round"></path><path d="M 199.000,234.433 C 199.274,237.452 199.456,237.441 200.000,240.433" stroke-width="5.170" stroke="black" fill="none" stroke-linecap="round"></path><path d="M 200.000,240.433 C 200.456,242.941 199.990,243.161 201.000,245.433" stroke-width="5.378" stroke="black" fill="none" stroke-linecap="round"></path><path d="M 201.000,245.433 C 201.990,247.661 202.020,248.196 204.000,249.433" stroke-width="5.501" stroke="black" fill="none" stroke-linecap="round"></path><path d="M 206.000,126.433 C 206.000,128.933 206.000,128.933 206.000,131.433" stroke-width="5.494" stroke="black" fill="none" stroke-linecap="round"></path><path d="M 219.000,178.433 C 219.000,182.433 219.000,182.433 219.000,186.433" stroke-width="5.389" stroke="black" fill="none" stroke-linecap="round"></path><path d="M 219.000,186.433 C 219.000,191.433 219.000,191.433 219.000,196.433" stroke-width="4.614" stroke="black" fill="none" stroke-linecap="round"></path><path d="M 219.000,196.433 C 219.000,199.433 219.000,199.433 219.000,202.433" stroke-width="4.235" stroke="black" fill="none" stroke-linecap="round"></path><path d="M 219.000,202.433 C 219.000,205.433 219.230,205.450 219.000,208.433" stroke-width="4.743" stroke="black" fill="none" stroke-linecap="round"></path><path d="M 219.000,208.433 C 218.730,211.950 218.293,211.919 218.000,215.433" stroke-width="4.273" stroke="black" fill="none" stroke-linecap="round"></path><path d="M 218.000,215.433 C 217.793,217.919 218.207,217.948 218.000,220.433" stroke-width="4.282" stroke="black" fill="none" stroke-linecap="round"></path><path d="M 218.000,220.433 C 217.707,223.948 217.293,223.919 217.000,227.433" stroke-width="4.537" stroke="black" fill="none" stroke-linecap="round"></path><path d="M 217.000,227.433 C 216.793,229.919 217.481,230.026 217.000,232.433" stroke-width="4.926" stroke="black" fill="none" stroke-linecap="round"></path><path d="M 217.000,232.433 C 216.481,235.026 215.473,234.832 215.000,237.433" stroke-width="5.173" stroke="black" fill="none" stroke-linecap="round"></path><path d="M 215.000,237.433 C 214.473,240.332 215.270,240.460 215.000,243.433" stroke-width="5.337" stroke="black" fill="none" stroke-linecap="round"></path><path d="M 215.000,243.433 C 214.770,245.960 214.252,245.909 214.000,248.433" stroke-width="5.179" stroke="black" fill="none" stroke-linecap="round"></path><path d="M 214.000,248.433 C 213.752,250.909 214.000,250.933 214.000,253.433" stroke-width="5.373" stroke="black" fill="none" stroke-linecap="round"></path><path d="M 214.000,253.433 C 214.000,255.933 214.000,255.933 214.000,258.433" stroke-width="5.471" stroke="black" fill="none" stroke-linecap="round"></path><path d="M 221.000,204.433 C 221.000,200.933 220.751,200.916 221.000,197.433" stroke-width="5.446" stroke="black" fill="none" stroke-linecap="round"></path><path d="M 221.000,197.433 C 221.251,193.916 221.208,193.864 222.000,190.433" stroke-width="4.324" stroke="black" fill="none" stroke-linecap="round"></path><path d="M 222.000,190.433 C 222.708,187.364 222.699,187.295 224.000,184.433" stroke-width="4.164" stroke="black" fill="none" stroke-linecap="round"></path><path d="M 224.000,184.433 C 225.199,181.795 225.385,181.856 227.000,179.433" stroke-width="4.577" stroke="black" fill="none" stroke-linecap="round"></path><path d="M 227.000,179.433 C 228.385,177.356 228.343,177.297 230.000,175.433" stroke-width="4.788" stroke="black" fill="none" stroke-linecap="round"></path><path d="M 230.000,175.433 C 232.343,172.797 232.364,172.776 235.000,170.433" stroke-width="4.885" stroke="black" fill="none" stroke-linecap="round"></path><path d="M 235.000,170.433 C 236.864,168.776 236.772,168.424 239.000,167.433" stroke-width="4.495" stroke="black" fill="none" stroke-linecap="round"></path><path d="M 239.000,167.433 C 241.272,166.424 241.667,165.967 244.000,166.433" stroke-width="4.911" stroke="black" fill="none" stroke-linecap="round"></path><path d="M 244.000,166.433 C 246.667,166.967 247.400,167.299 249.000,169.433" stroke-width="4.999" stroke="black" fill="none" stroke-linecap="round"></path><path d="M 249.000,169.433 C 250.400,171.299 249.770,171.907 250.000,174.433" stroke-width="4.910" stroke="black" fill="none" stroke-linecap="round"></path><path d="M 250.000,174.433 C 250.270,177.407 250.421,177.485 250.000,180.433" stroke-width="4.988" stroke="black" fill="none" stroke-linecap="round"></path><path d="M 250.000,180.433 C 249.421,184.485 249.103,184.462 248.000,188.433" stroke-width="4.656" stroke="black" fill="none" stroke-linecap="round"></path><path d="M 248.000,188.433 C 246.603,193.462 246.192,193.366 245.000,198.433" stroke-width="3.703" stroke="black" fill="none" stroke-linecap="round"></path><path d="M 245.000,198.433 C 244.192,201.866 244.581,201.947 244.000,205.433" stroke-width="4.322" stroke="black" fill="none" stroke-linecap="round"></path><path d="M 244.000,205.433 C 243.581,207.947 243.534,207.941 243.000,210.433" stroke-width="4.283" stroke="black" fill="none" stroke-linecap="round"></path><path d="M 243.000,210.433 C 242.034,214.941 241.568,214.886 241.000,219.433" stroke-width="4.599" stroke="black" fill="none" stroke-linecap="round"></path><path d="M 241.000,219.433 C 240.568,222.886 241.000,222.933 241.000,226.433" stroke-width="4.837" stroke="black" fill="none" stroke-linecap="round"></path><path d="M 241.000,226.433 C 241.000,228.933 241.000,228.933 241.000,231.433" stroke-width="5.021" stroke="black" fill="none" stroke-linecap="round"></path><path d="M 241.000,231.433 C 241.000,233.933 241.000,233.933 241.000,236.433" stroke-width="5.331" stroke="black" fill="none" stroke-linecap="round"></path><path d="M 241.000,236.433 C 241.000,239.433 240.239,239.644 241.000,242.433" stroke-width="5.500" stroke="black" fill="none" stroke-linecap="round"></path><path d="M 241.000,242.433 C 241.739,245.144 241.847,246.087 244.000,247.433" stroke-width="5.484" stroke="black" fill="none" stroke-linecap="round"></path><path d="M 267.000,181.433 C 264.500,183.933 263.211,183.254 262.000,186.433" stroke-width="5.365" stroke="black" fill="none" stroke-linecap="round"></path><path d="M 262.000,186.433 C 259.211,193.754 259.781,194.366 259.000,202.433" stroke-width="4.544" stroke="black" fill="none" stroke-linecap="round"></path><path d="M 259.000,202.433 C 258.281,209.866 259.000,209.933 259.000,217.433" stroke-width="3.256" stroke="black" fill="none" stroke-linecap="round"></path><path d="M 259.000,217.433 C 259.000,219.933 259.000,219.933 259.000,222.433" stroke-width="3.950" stroke="black" fill="none" stroke-linecap="round"></path><path d="M 259.000,222.433 C 259.000,227.433 259.000,227.433 259.000,232.433" stroke-width="4.200" stroke="black" fill="none" stroke-linecap="round"></path><path d="M 259.000,232.433 C 259.000,237.933 258.263,238.032 259.000,243.433" stroke-width="3.618" stroke="black" fill="none" stroke-linecap="round"></path><path d="M 259.000,243.433 C 259.763,249.032 259.759,249.310 262.000,254.433" stroke-width="3.378" stroke="black" fill="none" stroke-linecap="round"></path><path d="M 262.000,254.433 C 263.259,257.310 264.048,260.019 266.000,259.433" stroke-width="4.369" stroke="black" fill="none" stroke-linecap="round"></path><path d="M 266.000,259.433 C 269.048,258.519 269.792,255.849 272.000,251.433" stroke-width="4.865" stroke="black" fill="none" stroke-linecap="round"></path><path d="M 272.000,251.433 C 274.792,245.849 274.897,245.608 276.000,239.433" stroke-width="3.515" stroke="black" fill="none" stroke-linecap="round"></path><path d="M 276.000,239.433 C 277.397,231.608 276.692,231.439 277.000,223.433" stroke-width="3.057" stroke="black" fill="none" stroke-linecap="round"></path><path d="M 277.000,223.433 C 277.192,218.439 277.000,218.433 277.000,213.433" stroke-width="3.381" stroke="black" fill="none" stroke-linecap="round"></path><path d="M 277.000,213.433 C 277.000,207.433 277.442,207.404 277.000,201.433" stroke-width="3.262" stroke="black" fill="none" stroke-linecap="round"></path><path d="M 277.000,201.433 C 276.442,193.904 275.938,193.941 275.000,186.433" stroke-width="3.056" stroke="black" fill="none" stroke-linecap="round"></path><path d="M 275.000,186.433 C 274.438,181.941 274.883,181.849 274.000,177.433" stroke-width="3.462" stroke="black" fill="none" stroke-linecap="round"></path><path d="M 274.000,177.433 C 273.383,174.349 273.134,174.382 272.000,171.433" stroke-width="3.842" stroke="black" fill="none" stroke-linecap="round"></path><path d="M 272.000,171.433 C 270.634,167.882 270.595,167.889 269.000,164.433" stroke-width="4.001" stroke="black" fill="none" stroke-linecap="round"></path><path d="M 269.000,164.433 C 267.595,161.389 267.053,161.592 266.000,158.433" stroke-width="3.975" stroke="black" fill="none" stroke-linecap="round"></path><path d="M 266.000,158.433 C 264.553,154.092 265.447,150.302 264.000,149.433" stroke-width="4.458" stroke="black" fill="none" stroke-linecap="round"></path><path d="M 264.000,149.433 C 262.947,148.802 262.053,152.275 261.000,155.433" stroke-width="4.897" stroke="black" fill="none" stroke-linecap="round"></path><path d="M 261.000,155.433 C 259.553,159.775 259.606,159.890 259.000,164.433" stroke-width="4.557" stroke="black" fill="none" stroke-linecap="round"></path><path d="M 259.000,164.433 C 258.606,167.390 259.000,167.433 259.000,170.433" stroke-width="4.697" stroke="black" fill="none" stroke-linecap="round"></path><path d="M 259.000,170.433 C 259.000,172.933 257.660,173.711 259.000,175.433" stroke-width="4.446" stroke="black" fill="none" stroke-linecap="round"></path><path d="M 259.000,175.433 C 261.160,178.211 262.357,177.752 266.000,179.433" stroke-width="4.498" stroke="black" fill="none" stroke-linecap="round"></path><path d="M 266.000,179.433 C 268.857,180.752 268.923,180.774 272.000,181.433" stroke-width="4.258" stroke="black" fill="none" stroke-linecap="round"></path><path d="M 272.000,181.433 C 275.923,182.274 276.077,181.593 280.000,182.433" stroke-width="3.938" stroke="black" fill="none" stroke-linecap="round"></path><path d="M 280.000,182.433 C 283.077,183.093 282.978,183.504 286.000,184.433" stroke-width="4.003" stroke="black" fill="none" stroke-linecap="round"></path><path d="M 286.000,184.433 C 289.478,185.504 289.739,186.730 293.000,186.433" stroke-width="4.424" stroke="black" fill="none" stroke-linecap="round"></path><path d="M 292.000,186.433 C 292.000,191.933 292.342,191.967 292.000,197.433" stroke-width="5.254" stroke="black" fill="none" stroke-linecap="round"></path><path d="M 292.000,197.433 C 291.842,199.967 291.316,199.907 291.000,202.433" stroke-width="4.613" stroke="black" fill="none" stroke-linecap="round"></path><path d="M 291.000,202.433 C 290.316,207.907 290.262,207.923 290.000,213.433" stroke-width="3.631" stroke="black" fill="none" stroke-linecap="round"></path><path d="M 290.000,213.433 C 289.762,218.423 290.000,218.433 290.000,223.433" stroke-width="3.511" stroke="black" fill="none" stroke-linecap="round"></path><path d="M 290.000,223.433 C 290.000,231.433 290.000,231.433 290.000,239.433" stroke-width="3.058" stroke="black" fill="none" stroke-linecap="round"></path><path d="M 290.000,239.433 C 290.000,243.933 290.000,243.933 290.000,248.433" stroke-width="3.467" stroke="black" fill="none" stroke-linecap="round"></path><path d="M 290.000,248.433 C 290.000,250.933 290.000,250.933 290.000,253.433" stroke-width="4.039" stroke="black" fill="none" stroke-linecap="round"></path><path d="M 290.000,253.433 C 290.000,256.433 288.909,256.979 290.000,259.433" stroke-width="4.121" stroke="black" fill="none" stroke-linecap="round"></path><path d="M 290.000,259.433 C 290.909,261.479 292.241,263.233 294.000,262.433" stroke-width="4.839" stroke="black" fill="none" stroke-linecap="round"></path><path d="M 294.000,262.433 C 297.741,260.733 298.840,259.023 301.000,254.433" stroke-width="4.941" stroke="black" fill="none" stroke-linecap="round"></path><path d="M 301.000,254.433 C 302.840,250.523 301.285,249.901 302.000,245.433" stroke-width="4.036" stroke="black" fill="none" stroke-linecap="round"></path><path d="M 302.000,245.433 C 303.285,237.401 303.715,237.465 305.000,229.433" stroke-width="3.073" stroke="black" fill="none" stroke-linecap="round"></path><path d="M 305.000,229.433 C 305.715,224.965 305.500,224.933 306.000,220.433" stroke-width="3.554" stroke="black" fill="none" stroke-linecap="round"></path><path d="M 306.000,220.433 C 306.500,215.933 306.735,211.699 307.000,211.433" stroke-width="4.037" stroke="black" fill="none" stroke-linecap="round"></path><path d="M 307.000,211.433 C 307.235,211.199 307.000,215.433 307.000,219.433" stroke-width="4.751" stroke="black" fill="none" stroke-linecap="round"></path><path d="M 307.000,219.433 C 307.000,222.933 307.000,222.933 307.000,226.433" stroke-width="4.187" stroke="black" fill="none" stroke-linecap="round"></path><path d="M 307.000,226.433 C 307.000,228.933 306.793,228.948 307.000,231.433" stroke-width="4.297" stroke="black" fill="none" stroke-linecap="round"></path><path d="M 307.000,231.433 C 307.293,234.948 307.261,234.984 308.000,238.433" stroke-width="4.012" stroke="black" fill="none" stroke-linecap="round"></path><path d="M 308.000,238.433 C 308.761,241.984 307.942,243.081 310.000,245.433" stroke-width="4.601" stroke="black" fill="none" stroke-linecap="round"></path><path d="M 310.000,245.433 C 311.442,247.081 313.298,247.406 315.000,246.433" stroke-width="5.126" stroke="black" fill="none" stroke-linecap="round"></path><path d="M 315.000,246.433 C 316.798,245.406 316.217,244.007 317.000,241.433" stroke-width="4.497" stroke="black" fill="none" stroke-linecap="round"></path><path d="M 317.000,241.433 C 319.717,232.507 319.481,232.428 322.000,223.433" stroke-width="2.972" stroke="black" fill="none" stroke-linecap="round"></path><path d="M 322.000,223.433 C 322.981,219.928 323.239,219.984 324.000,216.433" stroke-width="3.627" stroke="black" fill="none" stroke-linecap="round"></path><path d="M 324.000,216.433 C 324.739,212.984 324.730,212.950 325.000,209.433" stroke-width="4.277" stroke="black" fill="none" stroke-linecap="round"></path><path d="M 325.000,209.433 C 325.230,206.450 325.000,206.433 325.000,203.433" stroke-width="4.193" stroke="black" fill="none" stroke-linecap="round"></path><path d="M 325.000,203.433 C 325.000,200.433 325.000,200.433 325.000,197.433" stroke-width="4.588" stroke="black" fill="none" stroke-linecap="round"></path><path d="M 325.000,197.433 C 325.000,194.933 325.000,194.933 325.000,192.433" stroke-width="4.372" stroke="black" fill="none" stroke-linecap="round"></path><path d="M 325.000,192.433 C 325.000,188.933 325.289,188.905 325.000,185.433" stroke-width="4.557" stroke="black" fill="none" stroke-linecap="round"></path><path d="M 325.000,185.433 C 324.789,182.905 325.596,181.801 324.000,180.433" stroke-width="4.927" stroke="black" fill="none" stroke-linecap="round"></path><path d="M 350.000,185.433 C 349.500,182.933 349.670,182.888 349.000,180.433" stroke-width="5.463" stroke="black" fill="none" stroke-linecap="round"></path><path d="M 349.000,180.433 C 348.170,177.388 349.000,175.433 347.000,174.433" stroke-width="5.125" stroke="black" fill="none" stroke-linecap="round"></path><path d="M 347.000,174.433 C 345.000,173.433 343.341,174.612 341.000,176.433" stroke-width="5.135" stroke="black" fill="none" stroke-linecap="round"></path><path d="M 341.000,176.433 C 338.841,178.112 339.199,178.795 338.000,181.433" stroke-width="5.059" stroke="black" fill="none" stroke-linecap="round"></path><path d="M 338.000,181.433 C 336.699,184.295 336.558,184.362 336.000,187.433" stroke-width="4.833" stroke="black" fill="none" stroke-linecap="round"></path><path d="M 336.000,187.433 C 335.558,189.862 336.000,189.933 336.000,192.433" stroke-width="4.882" stroke="black" fill="none" stroke-linecap="round"></path><path d="M 336.000,192.433 C 336.000,195.933 336.000,195.933 336.000,199.433" stroke-width="4.728" stroke="black" fill="none" stroke-linecap="round"></path><path d="M 336.000,199.433 C 336.000,203.433 334.296,204.877 336.000,207.433" stroke-width="3.998" stroke="black" fill="none" stroke-linecap="round"></path><path d="M 336.000,207.433 C 337.296,209.377 339.192,208.944 342.000,208.433" stroke-width="4.744" stroke="black" fill="none" stroke-linecap="round"></path><path d="M 342.000,208.433 C 344.692,207.944 344.847,205.164 347.000,205.433" stroke-width="5.033" stroke="black" fill="none" stroke-linecap="round"></path><path d="M 347.000,205.433 C 348.847,205.664 348.500,207.433 350.000,209.433" stroke-width="4.929" stroke="black" fill="none" stroke-linecap="round"></path><path d="M 350.000,209.433 C 351.500,211.433 352.010,211.205 353.000,213.433" stroke-width="4.911" stroke="black" fill="none" stroke-linecap="round"></path><path d="M 353.000,213.433 C 354.010,215.705 353.748,215.909 354.000,218.433" stroke-width="4.884" stroke="black" fill="none" stroke-linecap="round"></path><path d="M 354.000,218.433 C 354.248,220.909 354.248,220.958 354.000,223.433" stroke-width="4.898" stroke="black" fill="none" stroke-linecap="round"></path><path d="M 354.000,223.433 C 353.748,225.958 353.553,225.945 353.000,228.433" stroke-width="4.437" stroke="black" fill="none" stroke-linecap="round"></path><path d="M 353.000,228.433 C 351.553,234.945 353.040,235.961 350.000,241.433" stroke-width="4.151" stroke="black" fill="none" stroke-linecap="round"></path><path d="M 350.000,241.433 C 348.040,244.961 346.808,245.262 343.000,246.433" stroke-width="4.702" stroke="black" fill="none" stroke-linecap="round"></path><path d="M 343.000,246.433 C 340.308,247.262 339.917,246.229 337.000,245.433" stroke-width="5.007" stroke="black" fill="none" stroke-linecap="round"></path><path d="M 370.000,77.433 C 370.000,80.933 369.768,80.948 370.000,84.433" stroke-width="5.391" stroke="black" fill="none" stroke-linecap="round"></path><path d="M 370.000,84.433 C 370.268,88.448 370.732,88.419 371.000,92.433" stroke-width="4.240" stroke="black" fill="none" stroke-linecap="round"></path><path d="M 371.000,92.433 C 371.232,95.919 370.751,95.951 371.000,99.433" stroke-width="4.006" stroke="black" fill="none" stroke-linecap="round"></path><path d="M 371.000,99.433 C 371.251,102.951 371.419,102.947 372.000,106.433" stroke-width="3.983" stroke="black" fill="none" stroke-linecap="round"></path><path d="M 372.000,106.433 C 372.419,108.947 372.898,108.894 373.000,111.433" stroke-width="4.255" stroke="black" fill="none" stroke-linecap="round"></path><path d="M 373.000,111.433 C 373.398,121.394 373.000,121.433 373.000,131.433" stroke-width="2.853" stroke="black" fill="none" stroke-linecap="round"></path><path d="M 373.000,131.433 C 373.000,139.433 373.000,139.433 373.000,147.433" stroke-width="3.163" stroke="black" fill="none" stroke-linecap="round"></path><path d="M 373.000,147.433 C 373.000,153.433 373.000,153.433 373.000,159.433" stroke-width="3.482" stroke="black" fill="none" stroke-linecap="round"></path><path d="M 373.000,159.433 C 373.000,164.433 373.000,164.433 373.000,169.433" stroke-width="3.468" stroke="black" fill="none" stroke-linecap="round"></path><path d="M 373.000,169.433 C 373.000,184.933 373.000,184.933 373.000,200.433" stroke-width="2.690" stroke="black" fill="none" stroke-linecap="round"></path><path d="M 373.000,200.433 C 373.000,204.433 373.000,204.433 373.000,208.433" stroke-width="3.556" stroke="black" fill="none" stroke-linecap="round"></path><path d="M 373.000,208.433 C 373.000,211.433 373.143,211.438 373.000,214.433" stroke-width="3.914" stroke="black" fill="none" stroke-linecap="round"></path><path d="M 373.000,214.433 C 372.643,221.938 372.680,221.952 372.000,229.433" stroke-width="4.088" stroke="black" fill="none" stroke-linecap="round"></path><path d="M 372.000,229.433 C 371.680,232.952 371.500,232.933 371.000,236.433" stroke-width="4.007" stroke="black" fill="none" stroke-linecap="round"></path><path d="M 371.000,236.433 C 370.500,239.933 370.500,239.933 370.000,243.433" stroke-width="3.983" stroke="black" fill="none" stroke-linecap="round"></path><path d="M 370.000,243.433 C 369.500,246.933 369.293,246.919 369.000,250.433" stroke-width="3.925" stroke="black" fill="none" stroke-linecap="round"></path><path d="M 418.000,163.433 C 416.000,166.933 416.163,167.034 414.000,170.433" stroke-width="5.074" stroke="black" fill="none" stroke-linecap="round"></path><path d="M 414.000,170.433 C 409.163,178.034 409.146,178.036 404.000,185.433" stroke-width="4.007" stroke="black" fill="none" stroke-linecap="round"></path><path d="M 404.000,185.433 C 401.146,189.536 400.830,189.317 398.000,193.433" stroke-width="3.609" stroke="black" fill="none" stroke-linecap="round"></path><path d="M 398.000,193.433 C 395.330,197.317 395.616,197.510 393.000,201.433" stroke-width="3.615" stroke="black" fill="none" stroke-linecap="round"></path><path d="M 393.000,201.433 C 389.616,206.510 389.446,206.397 386.000,211.433" stroke-width="3.369" stroke="black" fill="none" stroke-linecap="round"></path><path d="M 386.000,211.433 C 382.946,215.897 383.580,216.432 380.000,220.433" stroke-width="3.417" stroke="black" fill="none" stroke-linecap="round"></path><path d="M 380.000,220.433 C 375.080,225.932 374.873,226.029 369.000,230.433" stroke-width="3.115" stroke="black" fill="none" stroke-linecap="round"></path><path d="M 369.000,230.433 C 366.873,232.029 366.568,231.663 364.000,232.433" stroke-width="3.807" stroke="black" fill="none" stroke-linecap="round"></path><path d="M 364.000,232.433 C 361.568,233.163 360.975,234.421 359.000,233.433" stroke-width="4.506" stroke="black" fill="none" stroke-linecap="round"></path><path d="M 359.000,233.433 C 355.975,231.921 355.318,230.861 354.000,227.433" stroke-width="4.743" stroke="black" fill="none" stroke-linecap="round"></path><path d="M 354.000,227.433 C 352.818,224.361 352.821,223.576 354.000,220.433" stroke-width="4.688" stroke="black" fill="none" stroke-linecap="round"></path><path d="M 354.000,220.433 C 355.821,215.576 356.157,215.020 360.000,211.433" stroke-width="4.362" stroke="black" fill="none" stroke-linecap="round"></path><path d="M 360.000,211.433 C 363.657,208.020 364.165,207.642 369.000,206.433" stroke-width="4.331" stroke="black" fill="none" stroke-linecap="round"></path><path d="M 369.000,206.433 C 374.165,205.142 374.866,205.225 380.000,206.433" stroke-width="3.581" stroke="black" fill="none" stroke-linecap="round"></path><path d="M 380.000,206.433 C 383.366,207.225 383.707,207.759 386.000,210.433" stroke-width="3.831" stroke="black" fill="none" stroke-linecap="round"></path><path d="M 386.000,210.433 C 389.707,214.759 389.289,215.283 392.000,220.433" stroke-width="3.471" stroke="black" fill="none" stroke-linecap="round"></path><path d="M 392.000,220.433 C 394.289,224.783 393.647,225.119 396.000,229.433" stroke-width="3.534" stroke="black" fill="none" stroke-linecap="round"></path><path d="M 396.000,229.433 C 399.647,236.119 399.480,236.407 404.000,242.433" stroke-width="3.115" stroke="black" fill="none" stroke-linecap="round"></path><path d="M 404.000,242.433 C 405.480,244.407 406.384,243.587 408.000,245.433" stroke-width="3.851" stroke="black" fill="none" stroke-linecap="round"></path><path d="M 446.000,189.433 C 444.000,187.933 444.278,187.262 442.000,186.433" stroke-width="5.490" stroke="black" fill="none" stroke-linecap="round"></path><path d="M 442.000,186.433 C 438.778,185.262 438.494,185.433 435.000,185.433" stroke-width="5.093" stroke="black" fill="none" stroke-linecap="round"></path><path d="M 435.000,185.433 C 431.994,185.433 431.795,185.358 429.000,186.433" stroke-width="4.388" stroke="black" fill="none" stroke-linecap="round"></path><path d="M 429.000,186.433 C 425.295,187.858 424.592,187.496 422.000,190.433" stroke-width="4.480" stroke="black" fill="none" stroke-linecap="round"></path><path d="M 422.000,190.433 C 417.092,195.996 416.824,196.529 414.000,203.433" stroke-width="4.493" stroke="black" fill="none" stroke-linecap="round"></path><path d="M 414.000,203.433 C 412.324,207.529 413.226,207.918 413.000,212.433" stroke-width="3.822" stroke="black" fill="none" stroke-linecap="round"></path><path d="M 413.000,212.433 C 412.726,217.918 413.000,217.933 413.000,223.433" stroke-width="3.847" stroke="black" fill="none" stroke-linecap="round"></path><path d="M 413.000,223.433 C 413.000,225.933 412.308,226.125 413.000,228.433" stroke-width="4.624" stroke="black" fill="none" stroke-linecap="round"></path><path d="M 413.000,228.433 C 413.808,231.125 414.500,230.933 416.000,233.433" stroke-width="4.467" stroke="black" fill="none" stroke-linecap="round"></path><path d="M 416.000,233.433 C 417.500,235.933 416.782,237.201 419.000,238.433" stroke-width="4.268" stroke="black" fill="none" stroke-linecap="round"></path><path d="M 419.000,238.433 C 421.282,239.701 422.227,239.287 425.000,238.433" stroke-width="4.601" stroke="black" fill="none" stroke-linecap="round"></path><path d="M 425.000,238.433 C 428.727,237.287 428.656,236.663 432.000,234.433" stroke-width="4.580" stroke="black" fill="none" stroke-linecap="round"></path><path d="M 432.000,234.433 C 434.656,232.663 435.123,232.937 437.000,230.433" stroke-width="4.171" stroke="black" fill="none" stroke-linecap="round"></path><path d="M 437.000,230.433 C 439.623,226.937 439.210,226.525 441.000,222.433" stroke-width="3.760" stroke="black" fill="none" stroke-linecap="round"></path><path d="M 441.000,222.433 C 442.710,218.525 442.860,218.536 444.000,214.433" stroke-width="3.749" stroke="black" fill="none" stroke-linecap="round"></path><path d="M 444.000,214.433 C 445.360,209.536 445.060,209.444 446.000,204.433" stroke-width="3.524" stroke="black" fill="none" stroke-linecap="round"></path><path d="M 446.000,204.433 C 446.560,201.444 446.811,201.459 447.000,198.433" stroke-width="3.974" stroke="black" fill="none" stroke-linecap="round"></path><path d="M 447.000,198.433 C 447.311,193.459 447.000,193.433 447.000,188.433" stroke-width="3.601" stroke="black" fill="none" stroke-linecap="round"></path><path d="M 447.000,188.433 C 447.000,185.433 447.487,185.354 447.000,182.433" stroke-width="4.341" stroke="black" fill="none" stroke-linecap="round"></path><path d="M 447.000,182.433 C 446.487,179.354 446.134,176.206 445.000,176.433" stroke-width="4.614" stroke="black" fill="none" stroke-linecap="round"></path><path d="M 445.000,176.433 C 443.634,176.706 442.688,179.767 442.000,183.433" stroke-width="4.982" stroke="black" fill="none" stroke-linecap="round"></path><path d="M 442.000,183.433 C 441.188,187.767 442.000,187.933 442.000,192.433" stroke-width="4.552" stroke="black" fill="none" stroke-linecap="round"></path><path d="M 442.000,192.433 C 442.000,196.433 441.818,196.440 442.000,200.433" stroke-width="4.018" stroke="black" fill="none" stroke-linecap="round"></path><path d="M 442.000,200.433 C 442.318,207.440 441.966,207.540 443.000,214.433" stroke-width="3.313" stroke="black" fill="none" stroke-linecap="round"></path><path d="M 443.000,214.433 C 443.466,217.540 444.341,217.356 445.000,220.433" stroke-width="4.187" stroke="black" fill="none" stroke-linecap="round"></path><path d="M 445.000,220.433 C 445.841,224.356 445.101,224.536 446.000,228.433" stroke-width="4.432" stroke="black" fill="none" stroke-linecap="round"></path><path d="M 446.000,228.433 C 446.601,231.036 446.800,231.033 448.000,233.433" stroke-width="4.865" stroke="black" fill="none" stroke-linecap="round"></path><path d="M 448.000,233.433 C 449.300,236.033 449.116,236.280 451.000,238.433" stroke-width="5.174" stroke="black" fill="none" stroke-linecap="round"></path></svg>